<?xml version="1.0" standalone="no"?><!DOCTYPE svg PUBLIC "-//W3C//DTD SVG 1.1//EN" "http://www.w3.org/Graphics/SVG/1.1/DTD/svg11.dtd"><svg class="icon" width="200px" height="200.00px" viewBox="0 0 1024 1024" version="1.1" xmlns="http://www.w3.org/2000/svg"><path fill="#5e5e5e" d="M512 704c8.288 0 15.776-3.232 21.456-8.4l0.064 0.08 352-320-0.08-0.08c6.448-5.856 10.56-14.208 10.56-23.6a32 32 0 0 0-32-32c-8.288 0-15.76 3.232-21.456 8.4l-0.08-0.08L512 628.752 181.536 328.32l-0.08 0.08A31.776 31.776 0 0 0 160 320a32 32 0 0 0-32 32c0 9.376 4.112 17.744 10.544 23.6l-0.08 0.08 352 320 0.08-0.08c5.68 5.168 13.168 8.4 21.456 8.4z" /></svg>